<svg width="24" height="24" viewBox="0 0 24 24" fill="none" xmlns="http://www.w3.org/2000/svg">
<path fill-rule="evenodd" clip-rule="evenodd" d="M8 5C7.73478 5 7.48043 5.10536 7.29289 5.29289C7.10536 5.48043 7 5.73478 7 6V18C7 18.2652 7.10536 18.5196 7.29289 18.7071C7.48043 18.8946 7.73478 19 8 19H16C16.5523 19 17 18.5523 17 18V9.41421L12.5858 5H8ZM5.87868 3.87868C6.44129 3.31607 7.20435 3 8 3H13C13.2652 3 13.5196 3.10536 13.7071 3.29289L18.7071 8.29289C18.8946 8.48043 19 8.73478 19 9V18C19 19.6569 17.6569 21 16 21H8C7.20435 21 6.44129 20.6839 5.87868 20.1213C5.31607 19.5587 5 18.7956 5 18V6C5 5.20435 5.31607 4.44129 5.87868 3.87868Z" fill="#232530"/>
<path fill-rule="evenodd" clip-rule="evenodd" d="M9 12C9 11.4477 9.44772 11 10 11H14C14.5523 11 15 11.4477 15 12C15 12.5523 14.5523 13 14 13H10C9.44772 13 9 12.5523 9 12Z" fill="#232530"/>
<path fill-rule="evenodd" clip-rule="evenodd" d="M9 16C9 15.4477 9.44772 15 10 15H12C12.5523 15 13 15.4477 13 16C13 16.5523 12.5523 17 12 17H10C9.44772 17 9 16.5523 9 16Z" fill="#232530"/>
<path fill-rule="evenodd" clip-rule="evenodd" d="M13 3C13.5523 3 14 3.44772 14 4V8H18C18.5523 8 19 8.44772 19 9C19 9.55228 18.5523 10 18 10H14C13.4696 10 12.9609 9.78929 12.5858 9.41421C12.2107 9.03914 12 8.53043 12 8V4C12 3.44772 12.4477 3 13 3Z" fill="#232530"/>
</svg>
