<svg width="24" height="24" viewBox="0 0 24 24" fill="none" xmlns="http://www.w3.org/2000/svg">
<path fill-rule="evenodd" clip-rule="evenodd" d="M21.5 6.5L12 1L2.5 6.5V17.5L12 23L21.5 17.5V6.5ZM8.03127 8.54669L5.49388 7.0777L7.79523 5.74534L10.4246 7.22435L8.03127 8.54669ZM7 10.2607L4.5 8.81329V11.9421L7 13.3484V10.2607ZM4.5 13.6631V16.3469L7 17.7943V15.0694L4.5 13.6631ZM8.5 18.6627L11.0001 20.1101V17.3194L8.5 15.9131V18.6627ZM11.0001 15.5984L8.5 14.1921V11.1291L11.0001 12.5765V15.5984ZM13.0001 17.7027V20.11L15.75 18.5179V16.0681L13.0001 17.7027ZM17.25 17.6495L19.5 16.3469V13.839L17.25 15.1764V17.6495ZM19.5 12.0944V8.81337L17.25 10.116V13.4319L19.5 12.0944ZM15.75 10.9844V14.3236L13.0001 15.9582V12.5765L15.75 10.9844ZM14.3952 9.4578L12.0001 10.8444L9.54461 9.42283L11.9603 8.08816L14.3952 9.4578ZM15.9029 8.58489L18.5062 7.07774L16.2027 5.74415L13.5038 7.23536L15.9029 8.58489ZM14.6894 4.86801L12 3.311L9.30299 4.87243L11.9681 6.37155L14.6894 4.86801Z" fill="#232530"/>
</svg>
