<svg width="16" height="16" viewBox="0 0 16 16" fill="none" xmlns="http://www.w3.org/2000/svg">
  <path fill-rule="evenodd" clip-rule="evenodd" d="M14.6668 4.99935C14.6668 4.51765 14.407 4.07341 13.9872 3.83725L8.65384 0.837248C8.24796 0.608938 7.75237 0.608938 7.34648 0.837248L2.01315 3.83725C1.59331 4.07341 1.3335 4.51765 1.3335 4.99935V10.9993C1.3335 11.481 1.59331 11.9253 2.01315 12.1614L7.34648 15.1614C7.75237 15.3898 8.24796 15.3898 8.65384 15.1614L13.9872 12.1614C14.407 11.9253 14.6668 11.481 14.6668 10.9993V4.99935ZM13.3335 6.09758V10.9993L8.66683 13.6243V8.72258L13.3335 6.09758ZM2.66683 10.9993L7.3335 13.6243L7.3335 8.72258L2.66683 6.09758V10.9993ZM3.05045 4.78356L8.00016 1.99935L12.9499 4.78356L8.00016 7.56778L3.05045 4.78356Z" fill="currentColor"/>
</svg>
