<svg fill="currentColor" width="24" height="24" viewBox="0 0 24 24" xmlns="http://www.w3.org/2000/svg">
<path fill-rule="evenodd" clip-rule="evenodd" d="M6 3.11111C6 2.49746 5.55228 2 5 2C4.44771 2 4 2.49746 4 3.11111V4H3.11111C2.49746 4 2 4.44772 2 5C2 5.55228 2.49746 6 3.11111 6H4V11H3.11111C2.49746 11 2 11.4477 2 12C2 12.5523 2.49746 13 3.11111 13H4V18H3.11111C2.49746 18 2 18.4477 2 19C2 19.5523 2.49746 20 3.11111 20H4V20.8889C4 21.5025 4.44771 22 5 22C5.55228 22 6 21.5025 6 20.8889V20H11V20.8889C11 21.5025 11.4477 22 12 22C12.5523 22 13 21.5025 13 20.8889V20H18V20.8889C18 21.5025 18.4477 22 19 22C19.5523 22 20 21.5025 20 20.8889V20H20.8889C21.5025 20 22 19.5523 22 19C22 18.4477 21.5025 18 20.8889 18H20V13H20.8889C21.5025 13 22 12.5523 22 12C22 11.4477 21.5025 11 20.8889 11H20V6H20.8889C21.5025 6 22 5.55228 22 5C22 4.44772 21.5025 4 20.8889 4H20V3.11111C20 2.49746 19.5523 2 19 2C18.4477 2 18 2.49746 18 3.11111V4H13V3.11111C13 2.49746 12.5523 2 12 2C11.4477 2 11 2.49746 11 3.11111V4H6V3.11111ZM18 6H13V11H18V6ZM18 13H13V18H18V13ZM11 13V18H6V13H11ZM11 6V11H6V6H11Z" />
</svg>
