<svg fill="currentColor" width="24" height="24" viewBox="0 0 24 24" xmlns="http://www.w3.org/2000/svg">
<path fill-rule="evenodd" clip-rule="evenodd" d="M22 7.5C22 6.77745 21.6103 6.11109 20.9805 5.75685L12.9805 1.25685C12.3717 0.914384 11.6283 0.914384 11.0195 1.25685L3.01948 5.75685C2.38972 6.11109 2 6.77745 2 7.5V16.5C2 17.2225 2.38972 17.8889 3.01948 18.2432L11.0195 22.7432C11.6283 23.0856 12.3717 23.0856 12.9805 22.7432L20.9805 18.2432C21.6103 17.8889 22 17.2225 22 16.5V7.5ZM20 9.14734V12.1395L17.25 13.6864V10.6942L20 9.14734ZM15.75 11.538V14.5301L13 16.077V13.0848L15.75 11.538ZM15.75 18.75V16.2512L13 17.798V20.4375L15.7619 18.8839C15.7541 18.8405 15.75 18.7957 15.75 18.75ZM17.25 15.4074V18.0469L20 16.5V13.8605L17.25 15.4074ZM8.25 16.2512L11 17.798V20.4375L8.23808 18.8839C8.24591 18.8405 8.25 18.7957 8.25 18.75V16.2512ZM6.75 15.4074V18.0469L4 16.5V13.8605L6.75 15.4074ZM6.75 13.6864L4 12.1395V9.14734L6.75 10.6942V13.6864ZM8.25 14.5301V11.538L11 13.0848V16.077L8.25 14.5301ZM8.98711 4.69475L12 3L14.9755 4.67373L11.7854 6.26879L8.98711 4.69475ZM4.57543 7.17632L7.45731 5.55526L10.1656 7.07868L7.66459 8.32919C7.4965 8.41324 7.37376 8.55189 7.30712 8.7129L4.57543 7.17632ZM11.744 7.96653L8.6926 9.49224L12 11.3526L14.8819 9.73159L11.744 7.96653ZM13.3638 7.15664L16.3354 5.67083C16.4045 5.63631 16.4659 5.59257 16.5189 5.54185L19.4246 7.17632L16.4117 8.87108L13.3638 7.15664Z" />
</svg>
