<svg xmlns="http://www.w3.org/2000/svg" width="1em" height="1em" fill="currentColor" viewBox="0 0 24 24" data-icon="fc:mark-pen_outline" aria-hidden="true">  
	<path d="m15.2427 4.5115-6.7372 6.7372-.7071 2.1213-1.041 1.041 2.8284 2.8284 1.041-1.0409 2.1213-.7072 6.7372-6.7372-4.2426-4.2426Zm6.3639 3.5355c.3906.3905.3906 1.0237 0 1.4142l-7.7781 7.7782-2.1214.7071-1.4142 1.4142c-.3905.3906-1.0236.3906-1.4142 0l-4.2426-4.2426c-.3905-.3905-.3905-1.0237 0-1.4142l1.4142-1.4142.7071-2.1214 7.7782-7.7781c.3905-.3906 1.0237-.3906 1.4142 0l5.6568 5.6568Zm-6.3639-.707 1.4142 1.4141-4.9498 4.9498-1.4142-1.4142 4.9498-4.9498ZM4.2825 16.8858l2.8285 2.8284-1.4143 1.4142-4.2426-1.4142 2.8284-2.8284Z"></path>
</svg>