<svg xmlns="http://www.w3.org/2000/svg" width="1em" height="1em" fill="currentColor" viewBox="0 0 24 24" data-icon="fc:file_outline" aria-hidden="true">
	<path fill-rule="evenodd" d="M14 2c.5523 0 1 .4477 1 1v4h4c.5523 0 1 .4477 1 1s-.4477 1-1 1h-4a2 2 0 0 1-2-2V3c0-.5523.4477-1 1-1Z" clip-rule="evenodd"></path>
	<path fill-rule="evenodd" d="M7 4a1 1 0 0 0-1 1v14a1 1 0 0 0 1 1h10a1.0001 1.0001 0 0 0 1-1V8.4142L13.5858 4H7ZM4.8787 2.8787A3 3 0 0 1 7 2h7a1 1 0 0 1 .7071.2929l5 5C19.8946 7.4804 20 7.7348 20 8v11a3 3 0 0 1-3 3H7a3 3 0 0 1-3-3V5a3 3 0 0 1 .8787-2.1213Z" clip-rule="evenodd"></path>
</svg>