<svg width="24" height="24" viewBox="0 0 24 24" fill="none" xmlns="http://www.w3.org/2000/svg">
<path fill-rule="evenodd" clip-rule="evenodd" d="M7.50001 5.5C6.23432 5.5 4.92408 5.91914 3.55471 6.83205L2.44531 5.16795C4.07595 4.08086 5.76571 3.5 7.50001 3.5C9.23432 3.5 10.9241 4.08086 12.5547 5.16795C13.9241 6.08086 15.2343 6.5 16.5 6.5C17.7657 6.5 19.0759 6.08086 20.4453 5.16795L21.2774 4.61325L22.3868 6.27735L21.5547 6.83205C19.9241 7.91914 18.2343 8.5 16.5 8.5C14.7657 8.5 13.0759 7.91914 11.4453 6.83205C10.0759 5.91914 8.76571 5.5 7.50001 5.5ZM7.50001 17.5C6.23432 17.5 4.92408 17.9191 3.55471 18.8321L2.44531 17.1679C4.07595 16.0809 5.76571 15.5 7.50001 15.5C9.23432 15.5 10.9241 16.0809 12.5547 17.1679C13.9241 18.0809 15.2343 18.5 16.5 18.5C17.7657 18.5 19.0759 18.0809 20.4453 17.1679L21.2774 16.6132L22.3868 18.2773L21.5547 18.8321C19.9241 19.9191 18.2343 20.5 16.5 20.5C14.7657 20.5 13.0759 19.9191 11.4453 18.8321C10.0759 17.9191 8.76571 17.5 7.50001 17.5ZM3.55471 12.8321C4.92408 11.9191 6.23432 11.5 7.50001 11.5C8.76571 11.5 10.0759 11.9191 11.4453 12.8321C13.0759 13.9191 14.7657 14.5 16.5 14.5C18.2343 14.5 19.9241 13.9191 21.5547 12.8321L22.3868 12.2773L21.2774 10.6132L20.4453 11.1679C19.0759 12.0809 17.7657 12.5 16.5 12.5C15.2343 12.5 13.9241 12.0809 12.5547 11.1679C10.9241 10.0809 9.23432 9.5 7.50001 9.5C5.76571 9.5 4.07595 10.0809 2.44531 11.1679L3.55471 12.8321Z" fill="#232530"/>
</svg>
