<svg width="24" height="24" viewBox="0 0 24 24" fill="none" xmlns="http://www.w3.org/2000/svg">
<path fill-rule="evenodd" clip-rule="evenodd" d="M4.87868 3.87868C5.44129 3.31607 6.20435 3 7 3C7.79565 3 8.55871 3.31607 9.12132 3.87868C9.68393 4.44129 10 5.20435 10 6C10 6.79565 9.68393 7.55871 9.12132 8.12132C8.80192 8.44073 8.4179 8.68067 8 8.82843V10C8 10.2652 8.10536 10.5196 8.29289 10.7071C8.48043 10.8946 8.73478 11 9 11H12H15C15.2652 11 15.5196 10.8946 15.7071 10.7071C15.8946 10.5196 16 10.2652 16 10V8.82843C15.5821 8.68067 15.1981 8.44073 14.8787 8.12132C14.3161 7.55871 14 6.79565 14 6C14 5.20435 14.3161 4.44129 14.8787 3.87868C15.4413 3.31607 16.2044 3 17 3C17.7956 3 18.5587 3.31607 19.1213 3.87868C19.6839 4.44129 20 5.20435 20 6C20 6.79565 19.6839 7.55871 19.1213 8.12132C18.8019 8.44073 18.4179 8.68067 18 8.82843V10C18 10.7957 17.6839 11.5587 17.1213 12.1213C16.5587 12.6839 15.7957 13 15 13H13V15.1716C13.4179 15.3193 13.8019 15.5593 14.1213 15.8787C14.6839 16.4413 15 17.2043 15 18C15 18.7957 14.6839 19.5587 14.1213 20.1213C13.5587 20.6839 12.7957 21 12 21C11.2043 21 10.4413 20.6839 9.87868 20.1213C9.31607 19.5587 9 18.7957 9 18C9 17.2043 9.31607 16.4413 9.87868 15.8787C10.1981 15.5593 10.5821 15.3193 11 15.1716V13H9C8.20435 13 7.44129 12.6839 6.87868 12.1213C6.31607 11.5587 6 10.7956 6 10V8.82843C5.5821 8.68067 5.19808 8.44073 4.87868 8.12132C4.31607 7.55871 4 6.79565 4 6C4 5.20435 4.31607 4.44129 4.87868 3.87868ZM12 17C11.7348 17 11.4804 17.1054 11.2929 17.2929C11.1054 17.4804 11 17.7348 11 18C11 18.2652 11.1054 18.5196 11.2929 18.7071C11.4804 18.8946 11.7348 19 12 19C12.2652 19 12.5196 18.8946 12.7071 18.7071C12.8946 18.5196 13 18.2652 13 18C13 17.7348 12.8946 17.4804 12.7071 17.2929C12.5196 17.1054 12.2652 17 12 17ZM17.7071 6.70711C17.5196 6.89464 17.2652 7 17 7C16.7348 7 16.4804 6.89464 16.2929 6.70711C16.1054 6.51957 16 6.26522 16 6C16 5.73478 16.1054 5.48043 16.2929 5.29289C16.4804 5.10536 16.7348 5 17 5C17.2652 5 17.5196 5.10536 17.7071 5.29289C17.8946 5.48043 18 5.73478 18 6C18 6.26522 17.8946 6.51957 17.7071 6.70711ZM7.70711 6.70711C7.51957 6.89464 7.26522 7 7 7C6.73478 7 6.48043 6.89464 6.29289 6.70711C6.10536 6.51957 6 6.26522 6 6C6 5.73478 6.10536 5.48043 6.29289 5.29289C6.48043 5.10536 6.73478 5 7 5C7.26522 5 7.51957 5.10536 7.70711 5.29289C7.89464 5.48043 8 5.73478 8 6C8 6.26522 7.89464 6.51957 7.70711 6.70711Z" fill="#232530"/>
</svg>
